<?xml version="1.0" encoding="utf-8"?>
<!-- Generator: Adobe Illustrator 25.4.1, SVG Export Plug-In . SVG Version: 6.00 Build 0)  -->
<svg version="1.1" id="Capa_1" xmlns="http://www.w3.org/2000/svg" xmlns:xlink="http://www.w3.org/1999/xlink" x="0px" y="0px"
	 viewBox="0 0 226.84 158.31" enable-background="new 0 0 226.84 158.31" xml:space="preserve">
<g>
	<g enable-background="new    ">
		<g>
			<path fill="#EC84EF" d="M78.65,148.43l-2.28-1.24c1.67-0.23,2.56-1.26,2.57-3.13l2.28,1.24
				C81.22,147.17,80.32,148.2,78.65,148.43z"/>
		</g>
		<g>
			<path fill="#EC84EF" d="M86.65,128.01l2.28,1.24c-0.17-0.09-0.38-0.11-0.63-0.08l-2.28-1.24
				C86.27,127.89,86.49,127.92,86.65,128.01z"/>
		</g>
		<g>
			<polygon fill="#EC84EF" points="81.22,145.31 78.94,144.07 78.95,138.05 81.23,139.29 			"/>
		</g>
		<g>
			<polygon fill="#EC84EF" points="74.55,149.01 72.27,147.77 76.37,147.19 78.65,148.43 			"/>
		</g>
		<g>
			<path fill="#EC84EF" d="M72.95,148.82l-2.28-1.24c0.41,0.22,0.94,0.28,1.59,0.19l2.28,1.24C73.9,149.1,73.36,149.04,72.95,148.82
				z"/>
		</g>
		<g>
			<path fill="#EC84EF" d="M77.26,139.68l-2.28-1.24c-0.27-0.14-0.39-0.45-0.39-0.88l2.28,1.24C76.87,139.23,77,139.53,77.26,139.68
				z"/>
		</g>
		<g>
			<polygon fill="#EC84EF" points="77.91,130.63 75.64,129.39 86.02,127.93 88.3,129.17 			"/>
		</g>
		<g>
			<polygon fill="#EC84EF" points="76.87,138.79 74.6,137.55 74.61,130.64 76.89,131.88 			"/>
		</g>
		<g>
			<path fill="#EC84EF" d="M81.65,124.54l-2.28-1.24c-0.27-0.14-0.39-0.45-0.39-0.88l2.28,1.24
				C81.26,124.09,81.38,124.4,81.65,124.54z"/>
		</g>
		<g>
			<path fill="#EC84EF" d="M76.89,131.88l-2.28-1.24c0-0.76,0.32-1.15,1.03-1.25l2.28,1.24C77.21,130.73,76.89,131.12,76.89,131.88z
				"/>
		</g>
		<g>
			<polygon fill="#EC84EF" points="81.26,123.66 78.98,122.42 78.99,119.03 81.27,120.27 			"/>
		</g>
		<g>
			<path fill="#EC84EF" d="M67.19,157.45l-2.28-1.24c-2.34-1.27-3.54-3.95-3.54-7.95l2.28,1.24
				C63.65,153.51,64.86,156.18,67.19,157.45z"/>
		</g>
		<g>
			<path fill="#EC84EF" d="M78,116.82l2.28,1.24c0.65,0.35,0.99,1.1,0.99,2.21l-2.28-1.24C78.99,117.92,78.65,117.17,78,116.82z"/>
		</g>
		<g>
			<path fill="#EC84EF" d="M83.5,108.22l2.28,1.24c-1.46-0.8-3.36-1.04-5.65-0.72l-2.28-1.24C80.15,107.18,82.04,107.42,83.5,108.22
				z"/>
		</g>
		<g>
			<polygon fill="#EC84EF" points="72.96,109.75 70.68,108.51 77.85,107.5 80.13,108.74 			"/>
		</g>
		<g>
			<polygon fill="#EC84EF" points="63.66,149.5 61.38,148.26 61.43,119.77 63.71,121.01 			"/>
		</g>
		<g>
			<path fill="#EFEC84" d="M80.13,108.74c5.96-0.84,9.22,2.16,9.21,8.66l-0.01,5.12c0,0.69-0.39,1.16-1.03,1.25l-6.02,0.85
				c-0.7,0.1-1.02-0.27-1.02-0.96l0.01-3.39c0-1.8-0.89-2.64-2.56-2.41l-4.1,0.58c-1.73,0.24-2.57,1.33-2.57,3.13l-0.05,25.04
				c0,1.87,0.89,2.64,2.56,2.41l4.1-0.58c1.67-0.23,2.56-1.26,2.57-3.13l0.01-6.02l-3.33,0.47c-0.7,0.1-1.02-0.27-1.02-0.96
				l0.01-6.92c0-0.76,0.32-1.15,1.03-1.25l10.38-1.46c0.64-0.09,1.02,0.2,1.02,0.96l-0.03,15.77c-0.01,6.5-3.29,10.42-9.25,11.26
				l-7.18,1.01c-6.02,0.85-9.22-2.16-9.21-8.66l0.05-28.5c0.01-6.5,3.22-10.41,9.25-11.26L80.13,108.74z"/>
		</g>
		<g>
			<path fill="#EC84EF" d="M63.71,121.01l-2.28-1.24c0.01-6.5,3.22-10.41,9.25-11.26l2.28,1.24
				C66.93,110.6,63.72,114.5,63.71,121.01z"/>
		</g>
	</g>
	<g enable-background="new    ">
		<g>
			<path fill="#EC84EF" d="M118.5,151.59l-2.28-1.24c-0.23-0.13-0.38-0.38-0.46-0.75l2.28,1.24
				C118.12,151.21,118.27,151.47,118.5,151.59z"/>
		</g>
		<g>
			<polygon fill="#EC84EF" points="118.05,150.85 115.77,149.61 113.73,141.18 116.01,142.42 			"/>
		</g>
		<g>
			<polygon fill="#EC84EF" points="105.97,135.81 103.69,134.57 111.76,133.44 114.04,134.68 			"/>
		</g>
		<g>
			<path fill="#EC84EF" d="M94.06,155.04l-2.28-1.24c-0.27-0.15-0.36-0.48-0.23-0.99l2.28,1.24
				C93.7,154.55,93.79,154.89,94.06,155.04z"/>
		</g>
		<g>
			<polygon fill="#EC84EF" points="114.04,134.68 111.76,133.44 107.76,115.19 110.04,116.43 			"/>
		</g>
		<g>
			<path fill="#EC84EF" d="M112.91,102.75l2.28,1.24c-0.17-0.09-0.39-0.12-0.64-0.08l-2.28-1.24
				C112.52,102.63,112.74,102.65,112.91,102.75z"/>
		</g>
		<g>
			<polygon fill="#EC84EF" points="105.64,105.16 103.36,103.92 112.27,102.66 114.55,103.9 			"/>
		</g>
		<g>
			<polygon fill="#EC84EF" points="93.82,154.05 91.54,152.81 102.27,105.04 104.55,106.28 			"/>
		</g>
		<g>
			<path fill="#EC84EF" d="M104.55,106.28l-2.28-1.24c0.13-0.71,0.51-1.04,1.09-1.12l2.28,1.24
				C105.06,105.24,104.68,105.57,104.55,106.28z"/>
		</g>
		<g>
			<path fill="#EFEC84" d="M126.19,149.5c0.19,0.73-0.13,1.19-0.9,1.3l-6.22,0.87c-0.58,0.08-0.9-0.22-1.02-0.82l-2.03-8.43
				l-12.05,1.69l-2,8.99c-0.13,0.64-0.45,1.03-1.03,1.11l-6.28,0.88c-0.7,0.1-1.02-0.27-0.83-1.06l10.72-47.77
				c0.13-0.71,0.51-1.04,1.09-1.12l8.91-1.25c0.58-0.08,0.96,0.14,1.09,0.82L126.19,149.5z M105.97,135.81l8.07-1.13l-4-18.25
				L105.97,135.81"/>
		</g>
	</g>
	<g enable-background="new    ">
		<g>
			<path fill="#EC84EF" d="M158.59,145.91l-2.28-1.24c-0.33-0.18-0.49-0.55-0.49-1.1l2.28,1.24
				C158.1,145.36,158.27,145.73,158.59,145.91z"/>
		</g>
		<g>
			<path fill="#EC84EF" d="M145.61,147.72l-2.28-1.24c-0.29-0.16-0.48-0.45-0.59-0.87l2.28,1.24
				C145.13,147.27,145.33,147.56,145.61,147.72z"/>
		</g>
		<g>
			<polygon fill="#EC84EF" points="158.1,144.8 155.82,143.56 155.87,116.38 158.15,117.62 			"/>
		</g>
		<g>
			<path fill="#EC84EF" d="M163.93,95.61l2.28,1.24c-0.2-0.11-0.47-0.14-0.79-0.1l-2.28-1.24C163.47,95.47,163.73,95.5,163.93,95.61
				z"/>
		</g>
		<g>
			<path fill="#EC84EF" d="M130.59,149.84l-2.28-1.24c-0.33-0.18-0.49-0.55-0.49-1.1l2.28,1.24
				C130.09,149.29,130.26,149.67,130.59,149.84z"/>
		</g>
		<g>
			<polygon fill="#EC84EF" points="156.97,97.94 154.69,96.7 163.15,95.51 165.43,96.75 			"/>
		</g>
		<g>
			<polygon fill="#EC84EF" points="148.39,131.16 146.11,129.92 153.28,98.08 155.56,99.32 			"/>
		</g>
		<g>
			<path fill="#EC84EF" d="M155.56,99.32l-2.28-1.24c0.19-0.79,0.64-1.27,1.41-1.37l2.28,1.24
				C156.2,98.05,155.75,98.53,155.56,99.32z"/>
		</g>
		<g>
			<polygon fill="#EC84EF" points="145.03,146.85 142.75,145.61 136.77,119.07 139.05,120.31 			"/>
		</g>
		<g>
			<path fill="#EC84EF" d="M138.47,99.21l2.28,1.24c-0.22-0.12-0.49-0.16-0.82-0.11l-2.28-1.24
				C137.98,99.05,138.25,99.09,138.47,99.21z"/>
		</g>
		<g>
			<polygon fill="#EC84EF" points="131.46,101.53 129.19,100.29 137.64,99.1 139.92,100.34 			"/>
		</g>
		<g>
			<polygon fill="#EC84EF" points="130.1,148.74 127.82,147.5 127.9,101.85 130.18,103.09 			"/>
		</g>
		<g>
			<path fill="#EFEC84" d="M165.43,96.75c0.83-0.12,1.28,0.3,1.28,1.2l-0.08,45.65c0,0.9-0.45,1.45-1.28,1.56l-5.96,0.84
				c-0.83,0.12-1.28-0.3-1.28-1.2l0.05-27.18l-0.45,0.06l-6.07,28.24c-0.19,0.79-0.64,1.27-1.41,1.37l-3.78,0.53
				c-0.77,0.11-1.22-0.24-1.41-0.98l-5.97-26.54l-0.45,0.06l-0.05,27.18c0,0.9-0.45,1.45-1.28,1.56l-5.9,0.83
				c-0.83,0.12-1.28-0.3-1.28-1.2l0.08-45.65c0-0.9,0.45-1.45,1.28-1.56l8.46-1.19c0.77-0.11,1.22,0.24,1.41,0.98l7.06,29.85
				l7.17-31.85c0.19-0.79,0.64-1.27,1.41-1.37L165.43,96.75z"/>
		</g>
		<g>
			<path fill="#EC84EF" d="M130.18,103.09l-2.28-1.24c0-0.9,0.45-1.45,1.28-1.56l2.28,1.24
				C130.63,101.64,130.18,102.19,130.18,103.09z"/>
		</g>
	</g>
	<g enable-background="new    ">
		<g>
			<path fill="#EC84EF" d="M195.99,130.34l2.28,1.24c-0.16-0.09-0.38-0.11-0.68-0.07l-2.28-1.24
				C195.61,130.23,195.83,130.25,195.99,130.34z"/>
		</g>
		<g>
			<path fill="#EC84EF" d="M192.16,111.45l2.28,1.24c-0.16-0.09-0.36-0.12-0.6-0.08l-2.28-1.24
				C191.8,111.33,192,111.36,192.16,111.45z"/>
		</g>
		<g>
			<polygon fill="#EC84EF" points="181.76,133.73 179.48,132.49 195.31,130.27 197.59,131.51 			"/>
		</g>
		<g>
			<path fill="#EC84EF" d="M173.45,143.87l-2.28-1.24c-0.26-0.14-0.42-0.45-0.42-0.89l2.28,1.24
				C173.03,143.42,173.19,143.73,173.45,143.87z"/>
		</g>
		<g>
			<path fill="#EC84EF" d="M196.04,91.06l2.28,1.24c-0.16-0.09-0.37-0.11-0.66-0.07l-2.28-1.24
				C195.67,90.94,195.88,90.97,196.04,91.06z"/>
		</g>
		<g>
			<polygon fill="#EC84EF" points="181.8,114.3 179.52,113.06 191.57,111.37 193.84,112.61 			"/>
		</g>
		<g>
			<polygon fill="#EC84EF" points="174.08,95.54 171.8,94.3 195.38,90.98 197.66,92.22 			"/>
		</g>
		<g>
			<polygon fill="#EC84EF" points="173.03,142.98 170.75,141.74 170.84,95.54 173.12,96.78 			"/>
		</g>
		<g>
			<path fill="#EFEC84" d="M197.66,92.22c0.77-0.11,1.02,0.27,1.02,0.96l-0.01,6.92c0,0.69-0.26,1.21-1.03,1.32l-15.83,2.22
				l-0.02,10.65l12.05-1.69c0.64-0.09,1.02,0.27,1.02,1.03l-0.01,6.85c0,0.76-0.39,1.23-1.03,1.32l-12.05,1.69l-0.02,10.24
				l15.83-2.22c0.77-0.11,1.02,0.2,1.02,0.96l-0.01,6.92c0,0.69-0.26,1.14-1.03,1.25l-23.58,3.31c-0.58,0.08-0.96-0.28-0.96-0.97
				l0.09-46.2c0-0.69,0.39-1.16,0.96-1.24L197.66,92.22z"/>
		</g>
		<g>
			<path fill="#EC84EF" d="M173.12,96.78l-2.28-1.24c0-0.69,0.39-1.16,0.96-1.24l2.28,1.24C173.5,95.62,173.12,96.09,173.12,96.78z"
				/>
		</g>
	</g>
</g>
<g>
	<g enable-background="new    ">
		<g>
			<polygon fill="#8487EF" points="32.01,84.75 29.73,83.51 28.46,76.77 30.74,78.01 			"/>
		</g>
		<g>
			<polygon fill="#8487EF" points="23.08,65.33 20.8,64.09 25.99,63.36 28.27,64.6 			"/>
		</g>
		<g>
			<polygon fill="#8487EF" points="28.27,64.6 25.99,63.36 23.58,50.29 25.86,51.53 			"/>
		</g>
		<g>
			<polygon fill="#8487EF" points="25.86,51.53 23.58,50.29 23.39,48.65 25.67,49.89 			"/>
		</g>
		<g>
			<polygon fill="#8487EF" points="25.7,30.46 23.42,29.22 33.04,27.87 35.32,29.11 			"/>
		</g>
		<g>
			<polygon fill="#8487EF" points="16.15,31.8 13.88,30.56 23.42,29.22 25.7,30.46 			"/>
		</g>
		<g>
			<polygon fill="#8487EF" points="3.24,88.79 0.96,87.55 13.88,30.56 16.15,31.8 			"/>
		</g>
		<g>
			<path fill="#EC84EF" d="M35.32,29.11l12.65,53.4l-15.96,2.24l-1.27-6.74l-10.25,1.44l-1.23,7.09L3.24,88.79l12.92-57l9.55-1.34
				L35.32,29.11z M23.08,65.33l5.19-0.73l-2.41-13.08l-0.19-1.63l-0.13,1.68L23.08,65.33"/>
		</g>
	</g>
	<g enable-background="new    ">
		<g>
			<polygon fill="#8487EF" points="71.89,65.32 69.61,64.08 82.43,62.27 84.71,63.51 			"/>
		</g>
		<g>
			<polygon fill="#8487EF" points="65.56,24.72 63.28,23.48 69.68,22.58 71.96,23.82 			"/>
		</g>
		<g>
			<polygon fill="#8487EF" points="52.71,81.84 50.43,80.6 50.51,39.1 52.78,40.34 			"/>
		</g>
		<g>
			<polygon fill="#8487EF" points="52.81,26.51 50.53,25.27 63.28,23.48 65.56,24.72 			"/>
		</g>
		<g>
			<polygon fill="#8487EF" points="52.78,40.34 50.51,39.1 50.53,25.27 52.81,26.51 			"/>
		</g>
		<g>
			<polygon fill="#EC84EF" points="71.96,23.82 71.94,37.65 71.92,44.57 71.9,58.4 71.89,65.32 84.71,63.51 84.69,77.35 
				52.71,81.84 52.78,40.34 52.81,26.51 65.56,24.72 			"/>
		</g>
	</g>
	<g enable-background="new    ">
		<g>
			<polygon fill="#8487EF" points="109.95,59.97 107.67,58.73 120.49,56.93 122.77,58.17 			"/>
		</g>
		<g>
			<polygon fill="#8487EF" points="109.99,39.22 107.71,37.98 120.53,36.18 122.81,37.42 			"/>
		</g>
		<g>
			<polygon fill="#8487EF" points="90.7,76.5 88.42,75.26 88.45,61.43 90.73,62.67 			"/>
		</g>
		<g>
			<polygon fill="#8487EF" points="90.73,62.67 88.45,61.43 88.52,19.93 90.8,21.17 			"/>
		</g>
		<g>
			<polygon fill="#8487EF" points="90.8,21.17 88.52,19.93 120.57,15.43 122.85,16.67 			"/>
		</g>
		<g>
			<polygon fill="#EC84EF" points="122.85,16.67 122.82,30.5 110,32.3 109.99,39.22 122.81,37.42 122.78,51.25 109.96,53.05 
				109.95,59.97 122.77,58.17 122.74,72 109.93,73.8 103.52,74.7 90.7,76.5 90.73,62.67 90.8,21.17 			"/>
		</g>
	</g>
	<g enable-background="new    ">
		<g>
			<path d="M171.67,36.08l2.28,1.24c-0.09-0.05-0.18-0.09-0.27-0.14l-2.28-1.24C171.5,35.99,171.59,36.03,171.67,36.08z"/>
		</g>
		<g>
			<polygon fill="#8487EF" points="158.7,66.88 156.42,65.64 156.45,51.8 158.73,53.04 			"/>
		</g>
		<g>
			<polygon fill="#8487EF" points="158.73,53.04 156.45,51.8 156.45,50.7 158.73,51.94 			"/>
		</g>
		<g>
			<path fill="#8487EF" d="M154.65,46.09l2.28,1.24c0.19,0.1,0.37,0.23,0.52,0.36c0.85,0.76,1.28,2.17,1.27,4.25l-2.28-1.24
				c0-2.08-0.43-3.48-1.27-4.25C155.02,46.31,154.85,46.19,154.65,46.09z"/>
		</g>
		<g>
			<path fill="#8487EF" d="M155.38,26.3l2.28,1.24c0.74,0.4,1.11,1.23,1.11,2.47c0,1.34-0.44,2.31-1.29,2.91l-2.28-1.24
				c0.85-0.6,1.28-1.57,1.29-2.91C156.49,27.53,156.12,26.7,155.38,26.3z"/>
		</g>
		<g>
			<path fill="#8487EF" d="M153.38,34.22l-2.28-1.24c1.87-0.26,3.24-0.7,4.1-1.3l2.28,1.24C156.63,33.53,155.26,33.96,153.38,34.22z
				"/>
		</g>
		<g>
			<polygon fill="#8487EF" points="152.36,34.37 150.08,33.13 151.1,32.99 153.38,34.22 			"/>
		</g>
		<g>
			<path fill="#8487EF" d="M170.27,10.99l2.28,1.24c-2.49-1.35-6-1.71-10.54-1.07l-2.28-1.24C164.27,9.28,167.79,9.64,170.27,10.99z
				"/>
		</g>
		<g>
			<polygon fill="#8487EF" points="133.13,70.47 130.85,69.23 130.88,55.4 133.16,56.64 			"/>
		</g>
		<g>
			<polygon fill="#8487EF" points="133.16,56.64 130.88,55.4 130.89,48.55 133.17,49.79 			"/>
		</g>
		<g>
			<polygon fill="#8487EF" points="133.17,49.79 130.89,48.55 130.9,41.63 133.18,42.87 			"/>
		</g>
		<g>
			<polygon fill="#8487EF" points="145.99,13.41 143.71,12.17 159.73,9.92 162.01,11.16 			"/>
		</g>
		<g>
			<polygon fill="#8487EF" points="133.18,42.87 130.9,41.63 130.92,34.72 133.2,35.96 			"/>
		</g>
		<g>
			<polygon fill="#8487EF" points="133.2,35.96 130.92,34.72 130.93,27.8 133.21,29.04 			"/>
		</g>
		<g>
			<polygon fill="#8487EF" points="133.21,29.04 130.93,27.8 130.96,13.97 133.24,15.21 			"/>
		</g>
		<g>
			<path fill="#EC84EF" d="M177.71,43.39c0.08,0.54,0.13,1.07,0.16,1.57c0.02,0.51,0.05,1.1,0.09,1.78c0,1.2,0,2.4-0.01,3.6
				c-0.01,3.51-0.01,6.61-0.02,9.34c-0.01,2.72-0.01,4.22-0.01,4.5c-1.97,0.28-3.72,0.52-5.25,0.74c-1.71,0.24-3.52,0.5-5.45,0.77
				c-2.14,0.3-3.91,0.55-5.32,0.75l-3.2,0.45l0.03-13.83l0-1.11c0-2.08-0.43-3.48-1.27-4.25c-0.86-0.75-2.22-1-4.1-0.74l-1.03,0.14
				l-0.01,6.85l-0.03,13.83l-6.41,0.9l-12.75,1.79l0.03-13.83l0.01-6.85l0.01-6.92l0.01-6.92l0.01-6.92l0.03-13.83l12.75-1.79
				l16.02-2.25c5.77-0.81,9.87-0.01,12.33,2.38c2.45,2.4,3.67,6.69,3.66,12.87c-0.05,0.66-0.08,1.25-0.1,1.78
				c-0.02,0.53-0.08,1.08-0.16,1.65c-0.13,1.26-0.41,2.37-0.84,3.3c-0.43,0.94-0.89,1.71-1.38,2.3c-0.5,0.61-1.11,1.18-1.83,1.74
				c0.72,0.37,1.33,0.77,1.82,1.23c0.49,0.47,0.94,1.09,1.37,1.88C177.3,41.09,177.58,42.12,177.71,43.39z M157.48,32.92
				c0.85-0.6,1.28-1.57,1.29-2.91c0-1.33-0.43-2.19-1.28-2.55c-0.86-0.36-2.23-0.41-4.1-0.15l-1.03,0.14l-0.01,3.46l-0.01,3.46
				l1.03-0.14C155.26,33.96,156.63,33.53,157.48,32.92"/>
		</g>
		<g>
			<polygon fill="#8487EF" points="133.24,15.21 130.96,13.97 143.71,12.17 145.99,13.41 			"/>
		</g>
	</g>
	<g enable-background="new    ">
		<g>
			<polygon fill="#8487EF" points="193.81,61.94 191.53,60.7 191.56,46.94 193.84,48.18 			"/>
		</g>
		<g>
			<polygon fill="#8487EF" points="193.84,48.18 191.56,46.94 191.57,40.02 193.85,41.26 			"/>
		</g>
		<g>
			<polygon fill="#8487EF" points="213.14,3.98 210.86,2.74 223.68,0.93 225.96,2.17 			"/>
		</g>
		<g>
			<polygon fill="#8487EF" points="193.85,41.26 191.57,40.02 191.6,26.19 193.88,27.43 			"/>
		</g>
		<g>
			<polygon fill="#8487EF" points="193.88,27.43 191.6,26.19 191.61,19.27 193.89,20.51 			"/>
		</g>
		<g>
			<polygon fill="#8487EF" points="181.1,8.48 178.82,7.24 210.86,2.74 213.14,3.98 			"/>
		</g>
		<g>
			<polygon fill="#8487EF" points="181.07,22.31 178.79,21.07 178.82,7.24 181.1,8.48 			"/>
		</g>
		<g>
			<polygon fill="#EC84EF" points="225.96,2.17 225.93,16.01 213.11,17.81 213.06,45.48 213.04,59.24 200.22,61.04 193.81,61.94 
				193.84,48.18 193.85,41.26 193.88,27.43 193.89,20.51 181.07,22.31 181.1,8.48 213.14,3.98 			"/>
		</g>
	</g>
</g>
</svg>
