<?xml version="1.0" encoding="utf-8"?>
<!-- Generator: Adobe Illustrator 25.4.1, SVG Export Plug-In . SVG Version: 6.00 Build 0)  -->
<svg version="1.1" id="Capa_1" xmlns="http://www.w3.org/2000/svg" xmlns:xlink="http://www.w3.org/1999/xlink" x="0px" y="0px"
	 viewBox="0 0 841.89 595.28" style="enable-background:new 0 0 841.89 595.28;" xml:space="preserve">
<style type="text/css">
	.st0{enable-background:new    ;}
	.st1{fill:#EC84EF;}
	.st2{fill:#EFEC84;}
	.st3{fill:#8487EF;}
</style>
<g>
	<g class="st0">
		<g>
			<path class="st1" d="M386.11,366.31l-2.28-1.24c1.67-0.23,2.56-1.26,2.57-3.13l2.28,1.24
				C388.68,365.05,387.78,366.08,386.11,366.31z"/>
		</g>
		<g>
			<path class="st1" d="M394.11,345.88l2.28,1.24c-0.17-0.09-0.38-0.11-0.63-0.08l-2.28-1.24
				C393.73,345.77,393.95,345.79,394.11,345.88z"/>
		</g>
		<g>
			<polygon class="st1" points="388.68,363.18 386.4,361.94 386.41,355.93 388.69,357.17 			"/>
		</g>
		<g>
			<polygon class="st1" points="382.01,366.89 379.73,365.65 383.83,365.07 386.11,366.31 			"/>
		</g>
		<g>
			<path class="st1" d="M380.42,366.69l-2.28-1.24c0.41,0.22,0.94,0.28,1.59,0.19l2.28,1.24
				C381.36,366.98,380.83,366.92,380.42,366.69z"/>
		</g>
		<g>
			<path class="st1" d="M384.73,357.56l-2.28-1.24c-0.27-0.14-0.39-0.45-0.39-0.88l2.28,1.24
				C384.34,357.11,384.46,357.41,384.73,357.56z"/>
		</g>
		<g>
			<polygon class="st1" points="385.38,348.5 383.1,347.27 393.48,345.81 395.76,347.05 			"/>
		</g>
		<g>
			<polygon class="st1" points="384.34,356.67 382.06,355.43 382.07,348.52 384.35,349.76 			"/>
		</g>
		<g>
			<path class="st1" d="M389.11,342.42l-2.28-1.24c-0.27-0.14-0.39-0.45-0.39-0.88l2.28,1.24
				C388.72,341.97,388.85,342.27,389.11,342.42z"/>
		</g>
		<g>
			<path class="st1" d="M384.35,349.76l-2.28-1.24c0-0.76,0.32-1.15,1.03-1.25l2.28,1.24C384.67,348.6,384.35,348.99,384.35,349.76z
				"/>
		</g>
		<g>
			<polygon class="st1" points="388.72,341.54 386.44,340.3 386.45,336.91 388.73,338.15 			"/>
		</g>
		<g>
			<path class="st1" d="M374.66,375.33l-2.28-1.24c-2.34-1.27-3.54-3.95-3.54-7.95l2.28,1.24
				C371.11,371.38,372.32,374.06,374.66,375.33z"/>
		</g>
		<g>
			<path class="st1" d="M385.46,334.7l2.28,1.24c0.65,0.35,0.99,1.1,0.99,2.21l-2.28-1.24C386.45,335.8,386.11,335.05,385.46,334.7z
				"/>
		</g>
		<g>
			<path class="st1" d="M390.97,326.1l2.28,1.24c-1.46-0.8-3.36-1.04-5.65-0.72l-2.28-1.24C387.61,325.06,389.5,325.3,390.97,326.1z
				"/>
		</g>
		<g>
			<polygon class="st1" points="380.42,327.63 378.14,326.39 385.32,325.38 387.6,326.62 			"/>
		</g>
		<g>
			<polygon class="st1" points="371.12,367.38 368.84,366.14 368.89,337.64 371.17,338.88 			"/>
		</g>
		<g>
			<path class="st2" d="M387.6,326.62c5.96-0.84,9.22,2.16,9.21,8.66l-0.01,5.12c0,0.69-0.39,1.16-1.03,1.25l-6.02,0.85
				c-0.7,0.1-1.02-0.27-1.02-0.96l0.01-3.39c0-1.8-0.89-2.64-2.56-2.41l-4.1,0.58c-1.73,0.24-2.57,1.33-2.57,3.13l-0.05,25.04
				c0,1.87,0.89,2.64,2.56,2.41l4.1-0.58c1.67-0.23,2.56-1.26,2.57-3.13l0.01-6.02l-3.33,0.47c-0.7,0.1-1.02-0.27-1.02-0.96
				l0.01-6.92c0-0.76,0.32-1.15,1.03-1.25l10.38-1.46c0.64-0.09,1.02,0.2,1.02,0.96l-0.03,15.77c-0.01,6.5-3.29,10.42-9.25,11.26
				l-7.18,1.01c-6.02,0.85-9.22-2.16-9.21-8.66l0.05-28.5c0.01-6.5,3.22-10.41,9.25-11.26L387.6,326.62z"/>
		</g>
		<g>
			<path class="st1" d="M371.17,338.88l-2.28-1.24c0.01-6.5,3.22-10.41,9.25-11.26l2.28,1.24
				C374.4,328.47,371.18,332.38,371.17,338.88z"/>
		</g>
	</g>
	<g class="st0">
		<g>
			<path class="st1" d="M425.97,369.47l-2.28-1.24c-0.23-0.13-0.38-0.38-0.46-0.75l2.28,1.24
				C425.59,369.09,425.73,369.35,425.97,369.47z"/>
		</g>
		<g>
			<polygon class="st1" points="425.51,368.73 423.23,367.49 421.2,359.06 423.48,360.3 			"/>
		</g>
		<g>
			<polygon class="st1" points="413.43,353.69 411.15,352.45 419.22,351.32 421.5,352.56 			"/>
		</g>
		<g>
			<path class="st1" d="M401.52,372.91l-2.28-1.24c-0.27-0.15-0.36-0.48-0.23-0.99l2.28,1.24
				C401.16,372.43,401.25,372.77,401.52,372.91z"/>
		</g>
		<g>
			<polygon class="st1" points="421.5,352.56 419.22,351.32 415.22,333.07 417.5,334.31 			"/>
		</g>
		<g>
			<path class="st1" d="M420.37,320.62l2.28,1.24c-0.17-0.09-0.39-0.12-0.64-0.08l-2.28-1.24
				C419.98,320.51,420.2,320.53,420.37,320.62z"/>
		</g>
		<g>
			<polygon class="st1" points="413.1,323.03 410.82,321.79 419.73,320.54 422.01,321.78 			"/>
		</g>
		<g>
			<polygon class="st1" points="401.29,371.92 399.01,370.68 409.73,322.92 412.01,324.16 			"/>
		</g>
		<g>
			<path class="st1" d="M412.01,324.16l-2.28-1.24c0.13-0.71,0.51-1.04,1.09-1.12l2.28,1.24
				C412.52,323.12,412.14,323.45,412.01,324.16z"/>
		</g>
		<g>
			<path class="st2" d="M433.65,367.38c0.19,0.73-0.13,1.19-0.9,1.3l-6.22,0.87c-0.58,0.08-0.9-0.22-1.02-0.82l-2.03-8.43
				l-12.05,1.69l-2,8.99c-0.13,0.64-0.45,1.03-1.03,1.11l-6.28,0.88c-0.7,0.1-1.02-0.27-0.83-1.06l10.72-47.77
				c0.13-0.71,0.51-1.04,1.09-1.12l8.91-1.25c0.58-0.08,0.96,0.14,1.09,0.82L433.65,367.38z M413.43,353.69l8.07-1.13l-4-18.25
				L413.43,353.69"/>
		</g>
	</g>
	<g class="st0">
		<g>
			<path class="st1" d="M466.06,363.79l-2.28-1.24c-0.33-0.18-0.49-0.55-0.49-1.1l2.28,1.24
				C465.56,363.24,465.73,363.61,466.06,363.79z"/>
		</g>
		<g>
			<path class="st1" d="M453.08,365.59l-2.28-1.24c-0.29-0.16-0.48-0.45-0.59-0.87l2.28,1.24
				C452.6,365.14,452.79,365.44,453.08,365.59z"/>
		</g>
		<g>
			<polygon class="st1" points="465.56,362.68 463.28,361.44 463.33,334.26 465.61,335.5 			"/>
		</g>
		<g>
			<path class="st1" d="M471.4,313.49l2.28,1.24c-0.2-0.11-0.47-0.14-0.79-0.1l-2.28-1.24C470.93,313.35,471.19,313.38,471.4,313.49
				z"/>
		</g>
		<g>
			<path class="st1" d="M438.05,367.72l-2.28-1.24c-0.33-0.18-0.49-0.55-0.49-1.1l2.28,1.24
				C437.56,367.17,437.73,367.54,438.05,367.72z"/>
		</g>
		<g>
			<polygon class="st1" points="464.43,315.82 462.15,314.58 470.61,313.39 472.89,314.63 			"/>
		</g>
		<g>
			<polygon class="st1" points="455.85,349.04 453.57,347.8 460.74,315.95 463.02,317.19 			"/>
		</g>
		<g>
			<path class="st1" d="M463.02,317.19l-2.28-1.24c0.19-0.79,0.64-1.27,1.41-1.37l2.28,1.24
				C463.66,315.93,463.21,316.41,463.02,317.19z"/>
		</g>
		<g>
			<polygon class="st1" points="452.49,364.73 450.21,363.49 444.24,336.94 446.52,338.18 			"/>
		</g>
		<g>
			<path class="st1" d="M445.93,317.09l2.28,1.24c-0.22-0.12-0.49-0.16-0.82-0.11l-2.28-1.24
				C445.44,316.93,445.71,316.97,445.93,317.09z"/>
		</g>
		<g>
			<polygon class="st1" points="438.93,319.4 436.65,318.16 445.11,316.98 447.39,318.22 			"/>
		</g>
		<g>
			<polygon class="st1" points="437.56,366.62 435.28,365.38 435.36,319.73 437.64,320.97 			"/>
		</g>
		<g>
			<path class="st2" d="M472.89,314.63c0.83-0.12,1.28,0.3,1.28,1.2l-0.08,45.65c0,0.9-0.45,1.45-1.28,1.56l-5.96,0.84
				c-0.83,0.12-1.28-0.3-1.28-1.2l0.05-27.18l-0.45,0.06l-6.07,28.24c-0.19,0.79-0.64,1.27-1.41,1.37l-3.78,0.53
				c-0.77,0.11-1.22-0.24-1.41-0.98l-5.97-26.54l-0.45,0.06l-0.05,27.18c0,0.9-0.45,1.45-1.28,1.56l-5.9,0.83
				c-0.83,0.12-1.28-0.3-1.28-1.2l0.08-45.65c0-0.9,0.45-1.45,1.28-1.56l8.46-1.19c0.77-0.11,1.22,0.24,1.41,0.98l7.06,29.85
				l7.17-31.85c0.19-0.79,0.64-1.27,1.41-1.37L472.89,314.63z"/>
		</g>
		<g>
			<path class="st1" d="M437.64,320.97l-2.28-1.24c0-0.9,0.45-1.45,1.28-1.56l2.28,1.24C438.09,319.52,437.64,320.07,437.64,320.97z
				"/>
		</g>
	</g>
	<g class="st0">
		<g>
			<path class="st1" d="M503.45,348.21l2.28,1.24c-0.16-0.09-0.38-0.11-0.68-0.07l-2.28-1.24
				C503.07,348.11,503.29,348.13,503.45,348.21z"/>
		</g>
		<g>
			<path class="st1" d="M499.63,329.33l2.28,1.24c-0.16-0.09-0.36-0.12-0.6-0.08l-2.28-1.24
				C499.26,329.21,499.47,329.24,499.63,329.33z"/>
		</g>
		<g>
			<polygon class="st1" points="489.22,351.61 486.94,350.37 502.77,348.15 505.05,349.39 			"/>
		</g>
		<g>
			<path class="st1" d="M480.91,361.75l-2.28-1.24c-0.26-0.14-0.42-0.45-0.42-0.89l2.28,1.24
				C480.49,361.3,480.65,361.61,480.91,361.75z"/>
		</g>
		<g>
			<path class="st1" d="M503.5,308.93l2.28,1.24c-0.16-0.09-0.37-0.11-0.66-0.07l-2.28-1.24
				C503.13,308.82,503.35,308.85,503.5,308.93z"/>
		</g>
		<g>
			<polygon class="st1" points="489.26,332.18 486.98,330.94 499.03,329.24 501.31,330.48 			"/>
		</g>
		<g>
			<polygon class="st1" points="481.54,313.42 479.26,312.18 502.85,308.86 505.13,310.1 			"/>
		</g>
		<g>
			<polygon class="st1" points="480.49,360.86 478.21,359.62 478.3,313.42 480.58,314.66 			"/>
		</g>
		<g>
			<path class="st2" d="M505.13,310.1c0.77-0.11,1.02,0.27,1.02,0.96l-0.01,6.92c0,0.69-0.26,1.21-1.03,1.32l-15.83,2.22
				l-0.02,10.65l12.05-1.69c0.64-0.09,1.02,0.27,1.02,1.03l-0.01,6.85c0,0.76-0.39,1.23-1.03,1.32l-12.05,1.69l-0.02,10.24
				l15.83-2.22c0.77-0.11,1.02,0.2,1.02,0.96l-0.01,6.92c0,0.69-0.26,1.14-1.03,1.25l-23.58,3.31c-0.58,0.08-0.96-0.28-0.96-0.97
				l0.09-46.2c0-0.69,0.39-1.16,0.96-1.24L505.13,310.1z"/>
		</g>
		<g>
			<path class="st1" d="M480.58,314.66l-2.28-1.24c0-0.69,0.39-1.16,0.96-1.24l2.28,1.24C480.97,313.5,480.58,313.97,480.58,314.66z
				"/>
		</g>
	</g>
</g>
<g>
	<g class="st0">
		<g>
			<polygon class="st3" points="339.47,302.63 337.19,301.39 335.92,294.65 338.2,295.89 			"/>
		</g>
		<g>
			<polygon class="st3" points="330.54,283.21 328.26,281.97 333.45,281.24 335.73,282.48 			"/>
		</g>
		<g>
			<polygon class="st3" points="335.73,282.48 333.45,281.24 331.04,268.16 333.32,269.4 			"/>
		</g>
		<g>
			<polygon class="st3" points="333.32,269.4 331.04,268.16 330.85,266.53 333.13,267.77 			"/>
		</g>
		<g>
			<polygon class="st3" points="333.17,248.33 330.89,247.09 340.5,245.74 342.78,246.98 			"/>
		</g>
		<g>
			<polygon class="st3" points="323.62,249.68 321.34,248.44 330.89,247.09 333.17,248.33 			"/>
		</g>
		<g>
			<polygon class="st3" points="310.7,306.67 308.42,305.43 321.34,248.44 323.62,249.68 			"/>
		</g>
		<g>
			<path class="st1" d="M342.78,246.98l12.65,53.4l-15.96,2.24l-1.27-6.74l-10.25,1.44l-1.23,7.09l-16.02,2.25l12.92-57l9.55-1.34
				L342.78,246.98z M330.54,283.21l5.19-0.73l-2.41-13.08l-0.19-1.63l-0.13,1.68L330.54,283.21"/>
		</g>
	</g>
	<g class="st0">
		<g>
			<polygon class="st3" points="379.35,283.19 377.07,281.95 389.89,280.15 392.17,281.39 			"/>
		</g>
		<g>
			<polygon class="st3" points="373.03,242.59 370.75,241.35 377.15,240.45 379.43,241.69 			"/>
		</g>
		<g>
			<polygon class="st3" points="360.17,299.72 357.89,298.48 357.97,256.98 360.25,258.22 			"/>
		</g>
		<g>
			<polygon class="st3" points="360.27,244.39 357.99,243.15 370.75,241.35 373.03,242.59 			"/>
		</g>
		<g>
			<polygon class="st3" points="360.25,258.22 357.97,256.98 357.99,243.15 360.27,244.39 			"/>
		</g>
		<g>
			<polygon class="st1" points="379.43,241.69 379.4,255.53 379.39,262.44 379.36,276.28 379.35,283.19 392.17,281.39 
				392.15,295.23 360.17,299.72 360.25,258.22 360.27,244.39 373.03,242.59 			"/>
		</g>
	</g>
	<g class="st0">
		<g>
			<polygon class="st3" points="417.41,277.84 415.14,276.6 427.95,274.8 430.23,276.04 			"/>
		</g>
		<g>
			<polygon class="st3" points="417.45,257.09 415.17,255.85 427.99,254.05 430.27,255.29 			"/>
		</g>
		<g>
			<polygon class="st3" points="398.16,294.38 395.88,293.14 395.91,279.31 398.19,280.55 			"/>
		</g>
		<g>
			<polygon class="st3" points="398.19,280.55 395.91,279.31 395.99,237.81 398.27,239.05 			"/>
		</g>
		<g>
			<polygon class="st3" points="398.27,239.05 395.99,237.81 428.03,233.3 430.31,234.54 			"/>
		</g>
		<g>
			<polygon class="st1" points="430.31,234.54 430.28,248.38 417.47,250.18 417.45,257.09 430.27,255.29 430.24,269.13 
				417.43,270.93 417.41,277.84 430.23,276.04 430.21,289.88 417.39,291.68 410.98,292.58 398.16,294.38 398.19,280.55 
				398.27,239.05 			"/>
		</g>
	</g>
	<g class="st0">
		<g>
			<path d="M479.14,253.96l2.28,1.24c-0.09-0.05-0.18-0.09-0.27-0.14l-2.28-1.24C478.96,253.86,479.05,253.91,479.14,253.96z"/>
		</g>
		<g>
			<polygon class="st3" points="466.16,284.75 463.89,283.51 463.91,269.68 466.19,270.92 			"/>
		</g>
		<g>
			<polygon class="st3" points="466.19,270.92 463.91,269.68 463.91,268.57 466.19,269.81 			"/>
		</g>
		<g>
			<path class="st3" d="M462.12,263.96l2.28,1.24c0.19,0.1,0.37,0.23,0.52,0.36c0.85,0.76,1.28,2.17,1.27,4.25l-2.28-1.24
				c0-2.08-0.43-3.48-1.27-4.25C462.48,264.19,462.31,264.07,462.12,263.96z"/>
		</g>
		<g>
			<path class="st3" d="M462.84,244.18l2.28,1.24c0.74,0.4,1.11,1.23,1.11,2.47c0,1.34-0.44,2.31-1.29,2.91l-2.28-1.24
				c0.85-0.6,1.28-1.57,1.29-2.91C463.96,245.41,463.58,244.58,462.84,244.18z"/>
		</g>
		<g>
			<path class="st3" d="M460.84,252.1l-2.28-1.24c1.87-0.26,3.24-0.7,4.1-1.3l2.28,1.24C464.09,251.4,462.72,251.84,460.84,252.1z"
				/>
		</g>
		<g>
			<polygon class="st3" points="459.82,252.25 457.54,251.01 458.56,250.86 460.84,252.1 			"/>
		</g>
		<g>
			<path class="st3" d="M477.74,228.87l2.28,1.24c-2.49-1.35-6-1.71-10.54-1.07l-2.28-1.24
				C471.74,227.16,475.25,227.52,477.74,228.87z"/>
		</g>
		<g>
			<polygon class="st3" points="440.6,288.35 438.32,287.11 438.34,273.27 440.62,274.51 			"/>
		</g>
		<g>
			<polygon class="st3" points="440.62,274.51 438.34,273.27 438.35,266.43 440.63,267.67 			"/>
		</g>
		<g>
			<polygon class="st3" points="440.63,267.67 438.35,266.43 438.37,259.51 440.65,260.75 			"/>
		</g>
		<g>
			<polygon class="st3" points="453.45,231.29 451.17,230.05 467.19,227.8 469.47,229.04 			"/>
		</g>
		<g>
			<polygon class="st3" points="440.65,260.75 438.37,259.51 438.38,252.59 440.66,253.83 			"/>
		</g>
		<g>
			<polygon class="st3" points="440.66,253.83 438.38,252.59 438.39,245.68 440.67,246.92 			"/>
		</g>
		<g>
			<polygon class="st3" points="440.67,246.92 438.39,245.68 438.42,231.84 440.7,233.08 			"/>
		</g>
		<g>
			<path class="st1" d="M485.17,261.27c0.08,0.54,0.13,1.07,0.16,1.57c0.02,0.51,0.05,1.1,0.09,1.78c0,1.2,0,2.4-0.01,3.6
				c-0.01,3.51-0.01,6.61-0.02,9.34c-0.01,2.72-0.01,4.22-0.01,4.5c-1.97,0.28-3.72,0.52-5.25,0.74c-1.71,0.24-3.52,0.5-5.45,0.77
				c-2.14,0.3-3.91,0.55-5.32,0.75l-3.2,0.45l0.03-13.83l0-1.11c0-2.08-0.43-3.48-1.27-4.25c-0.86-0.75-2.22-1-4.1-0.74l-1.03,0.14
				l-0.01,6.85l-0.03,13.83l-6.41,0.9l-12.75,1.79l0.03-13.83l0.01-6.85l0.01-6.92l0.01-6.92l0.01-6.92l0.03-13.83l12.75-1.79
				l16.02-2.25c5.77-0.81,9.87-0.01,12.33,2.38c2.45,2.4,3.67,6.69,3.66,12.87c-0.05,0.66-0.08,1.25-0.1,1.78
				c-0.02,0.53-0.08,1.08-0.16,1.65c-0.13,1.26-0.41,2.37-0.84,3.3c-0.43,0.94-0.89,1.71-1.38,2.3c-0.5,0.61-1.11,1.18-1.83,1.74
				c0.72,0.37,1.33,0.77,1.82,1.23c0.49,0.47,0.94,1.09,1.37,1.88C484.77,258.97,485.05,260,485.17,261.27z M464.95,250.8
				c0.85-0.6,1.28-1.57,1.29-2.91c0-1.33-0.43-2.19-1.28-2.55c-0.86-0.36-2.23-0.41-4.1-0.15l-1.03,0.14l-0.01,3.46l-0.01,3.46
				l1.03-0.14C462.72,251.84,464.09,251.4,464.95,250.8"/>
		</g>
		<g>
			<polygon class="st3" points="440.7,233.08 438.42,231.84 451.17,230.05 453.45,231.29 			"/>
		</g>
	</g>
	<g class="st0">
		<g>
			<polygon class="st3" points="501.27,279.82 499,278.58 499.02,264.82 501.3,266.06 			"/>
		</g>
		<g>
			<polygon class="st3" points="501.3,266.06 499.02,264.82 499.03,257.9 501.31,259.14 			"/>
		</g>
		<g>
			<polygon class="st3" points="520.6,221.85 518.32,220.61 531.14,218.81 533.42,220.05 			"/>
		</g>
		<g>
			<polygon class="st3" points="501.31,259.14 499.03,257.9 499.06,244.07 501.34,245.31 			"/>
		</g>
		<g>
			<polygon class="st3" points="501.34,245.31 499.06,244.07 499.07,237.15 501.35,238.39 			"/>
		</g>
		<g>
			<polygon class="st3" points="488.56,226.36 486.28,225.12 518.32,220.61 520.6,221.85 			"/>
		</g>
		<g>
			<polygon class="st3" points="488.53,240.19 486.26,238.95 486.28,225.12 488.56,226.36 			"/>
		</g>
		<g>
			<polygon class="st1" points="533.42,220.05 533.39,233.89 520.58,235.69 520.52,263.35 520.5,277.12 507.68,278.92 
				501.27,279.82 501.3,266.06 501.31,259.14 501.34,245.31 501.35,238.39 488.53,240.19 488.56,226.36 520.6,221.85 			"/>
		</g>
	</g>
</g>
</svg>
